PathFileType	4	(X/Y/Z)	Patient4_TMGait_0pt4_01_left_12.trc.trc
DataRate	CameraRate	NumFrames	NumMarkers	Units	OrigDataRate	OrigDataStartFrame	OrigNumFrames
72.164948453608	72.164948453608	4	33	mm	72.164948453608	1	       141
Frame#	Time	Sacral			L.Shoulder			Chest			R.Shoulder			Neck			R.ASIS			L.ASIS			R.Thigh.Superior			R.Thigh.Lateral			R.Thigh.Inferior			R.Patella			L.Thigh.Superior			L.Thigh.Lateral			L.Thigh.Inferior			L.Patella			L.Shank.Superior			L.Shank.Lateral			L.Shank.Inferior			R.Shank.Superior			R.Shank.Lateral			R.Shank.Inferior			R.Heel			R.Midfoot.Superior			R.Midfoot.Lateral			R.Toe			L.Heel			L.Midfoot.Lateral			L.Midfoot.Superior			L.Toe			L.Elbow			L.Wrist			R.Elbow			R.Wrist			
		X1	Y1	Z1	X2	Y2	Z2	X3	Y3	Z3	X4	Y4	Z4	X5	Y5	Z5	X6	Y6	Z6	X7	Y7	Z7	X8	Y8	Z8	X9	Y9	Z9	X10	Y10	Z10	X11	Y11	Z11	X12	Y12	Z12	X13	Y13	Z13	X14	Y14	Z14	X15	Y15	Z15	X16	Y16	Z16	X17	Y17	Z17	X18	Y18	Z18	X19	Y19	Z19	X20	Y20	Z20	X21	Y21	Z21	X22	Y22	Z22	X23	Y23	Z23	X24	Y24	Z24	X25	Y25	Z25	X26	Y26	Z26	X27	Y27	Z27	X28	Y28	Z28	X29	Y29	Z29	X30	Y30	Z30	X31	Y31	Z31	X32	Y32	Z32	X33	Y33	Z33	

1	14.620000000000	818.970302867805	1003.988085816672	532.601446084852	986.483004963932	1432.118829410327	338.045038383267	1095.051411534702	1369.612344050891	497.598789883615	1016.300485363661	1444.029572422131	673.776266821789	976.394220987177	1497.878615770597	494.589378175700	1054.915238819309	944.563641761807	639.933683355254	1028.181983133645	965.659983459630	367.184308345771	1091.682648121115	740.334680154510	608.887837247897	1008.314463013856	631.285592085270	667.617095642091	1083.540046258501	578.805834876435	586.032768509093	1079.615298794151	490.674449249131	589.492984732733	1107.289709848777	775.187721213684	391.623398161901	1054.429869151494	649.503523036951	315.761277029203	1158.239247565342	583.968697881212	371.189303829727	1167.008535200805	494.675109835155	363.837819241760	1099.991267008523	428.702936824347	359.641108383115	956.345253113514	385.715931504076	316.493974120449	946.697649740304	256.333858338612	372.666418487680	1047.953571775452	402.414541811253	594.919964490737	973.207418407952	300.968347938483	656.816848649336	1008.148360076800	205.846581999830	590.006553803096	865.107877191413	44.171592200208	560.189237350557	1038.272587102353	96.810798093934	593.430268025119	949.977160503688	37.093555090329	632.934641535366	1158.531593635297	40.558129344467	617.426469928022	756.948438001250	188.584717388005	418.899149241202	811.926221289701	145.688591264619	335.100932731683	918.146073970264	156.165713934608	352.128027424250	997.425331338130	46.314177718953	318.001345237586	926.560633891288	1079.451954490805	236.323419700240	971.184455952832	822.026300205115	231.388650888961	1023.730624742029	1112.686977011992	829.505373040982	1241.599763325841	977.032306070044	813.773815871951	
2	14.633857142857	817.861219821497	1005.084326316708	534.406739240058	985.234818868011	1432.865576166613	339.326556988128	1095.046641290986	1369.515928124749	497.639425582080	1018.438952258327	1443.998980075298	674.650164551922	976.952496595329	1498.249931797874	495.875419478707	1054.040589408827	944.325680902848	639.700441419769	1025.383905018212	966.497281535542	367.201423634806	1087.996785647137	739.539662654428	607.637852622103	1004.123380552928	631.308501936455	667.533955544464	1077.766818466026	578.157970687338	585.072043097647	1073.150783771188	490.461737837771	588.609956589593	1106.038131891882	778.101331561719	391.889669573712	1054.855347462744	651.749698031506	316.008179583317	1159.402089884557	587.589849021051	371.367163722422	1169.928626012213	499.195282868823	364.020914876574	1105.926473538174	431.605616915622	359.216324244717	964.988255641513	382.012182489385	315.911398122936	962.205412570907	252.254959087814	370.960568138001	1041.588591873277	402.283334403586	594.449136389593	967.163821244299	300.897068723486	656.619759203560	1002.011847496938	205.754747141513	589.756722501269	859.147746971098	43.942009710404	560.179698476372	1032.180915911739	96.785417243711	593.387815172763	943.979589092924	37.057894475584	633.032133361832	1152.500888914921	40.783867534999	617.464420816210	777.260482921963	174.388682913454	417.044923508194	833.694906694441	135.722301473156	332.518877439944	938.895532478741	151.513777530911	349.413686139731	1023.381338368945	46.921846825288	313.513280413794	918.999184013337	1081.106081415533	239.507028752994	959.867105578418	823.091199545025	235.289549165033	1032.674253499612	1113.196469094989	830.108395778521	1254.765944240793	986.443646472779	812.261153002172	
3	14.647714285714	816.749192754125	1006.153916340398	536.173866840924	984.003257019495	1433.573747733103	340.578301269241	1095.056157501119	1369.379199097624	497.644880189314	1020.599192484343	1443.930466234557	675.486872989829	977.531211173560	1498.589811065336	497.130735040416	1053.153424744200	944.061584363210	639.421042496984	1022.599181326037	967.297495727920	367.178524180384	1084.310314953781	738.748178268692	606.366608170851	999.983490976626	631.320390706985	667.448663477958	1072.038079157357	577.512548895945	584.120668525111	1066.738566572036	490.248813654869	587.760421475705	1104.690632773604	780.869576542620	392.132455715082	1055.094751857743	653.878781901753	316.222930459567	1160.256775155470	590.997267591953	371.633619238578	1172.536667965241	503.582366914148	364.262698674055	1111.636769062331	434.444652369786	358.821802075527	973.675902416027	378.116410531412	315.226916148592	977.897167258348	248.112891875577	369.205719488413	1035.276171515085	402.151015189145	593.997163122384	961.166912266717	300.818760641369	656.435545169156	995.901726955870	205.658389205970	589.513348298475	853.207320526267	43.722906556506	560.172184569287	1026.113259273368	96.754563576454	593.340118405937	938.007134680210	37.021295358252	633.125983923686	1146.495072981254	40.994813876649	617.498331491036	798.034871329740	160.059154914755	414.995312803243	855.987437670972	125.630050528073	329.856109323845	960.032887639972	146.811774525719	346.717788704014	1049.757086803257	47.604020148545	309.280740764130	911.579546371138	1082.723751032027	242.646059818095	948.742441410719	824.135109090523	239.124944960761	1041.517480390616	1113.657866144706	830.620445889851	1267.740796339598	995.833651365223	810.643831328308	
4	14.661571428571	815.641238698800	1007.167313526197	537.855430252514	982.813587627221	1434.205541845217	341.753591815979	1095.089833769982	1369.172435852173	497.578368092553	1022.775455764076	1443.798719341146	676.237791790670	978.142338115325	1498.871653765267	498.305267700723	1052.251619139703	943.755376589925	639.061831380828	1019.857109254290	968.022858611419	367.082802492057	1080.655952032890	737.966557596753	605.082710663238	995.950529812091	631.316033278161	667.359875913339	1066.424757466009	576.875391828666	583.200176178137	1060.457551920009	490.036779757635	586.977887633614	1103.165622506413	783.347395691137	392.328845919691	1054.998401159648	655.785218190118	316.359873702124	1160.563041048315	594.003676238024	372.028705557473	1174.569181000547	507.704867774945	364.590980334685	1116.900523247434	437.160235370687	358.475723644188	982.372260884225	373.956559863115	314.384094402728	993.764736118021	243.959305406488	367.401933166335	1029.092683757838	402.018107871580	593.580762581079	955.282605633279	300.731286049370	656.275153307713	989.872143544434	205.557284103114	589.285018941525	847.330279993795	43.525788872897	560.168443328322	1020.120247899395	96.717586361894	593.288091703467	932.108262704878	36.984065447832	633.213312086707	1140.563177618507	41.178652856454	617.525720430369	819.443643677918	145.713491746253	412.664100086471	879.001896030654	115.491316248645	327.118942059593	981.647629767246	142.144319939573	344.104502598837	1076.600706320919	48.502578150577	305.569690065396	904.485171788561	1084.258153155719	245.663261656175	938.071267349906	825.128222158692	242.787597842992	1050.118570534904	1114.029140528729	830.934589853325	1280.265522663687	1005.108756329013	808.819433717045	
